{
  "title": "Frozen 2013 720p DVDSCR XViD AC3-HuMPDaY",
  "uid": 9448649,
  "size": 2538778356,
  "categoryP": "video",
  "categoryS": "hd___movies",
  "magnet": "?xt=urn:btih:8631a6c1fee556246a798946a638d2661c634946&amp;dn=Frozen+2013+720p+DVDSCR+XViD+AC3-HuMPDaY&amp;tr=udp%3A%2F%2Ftracker.openbittorrent.com%3A80&amp;tr=udp%3A%2F%2Fopen.demonii.com%3A1337&amp;tr=udp%3A%2F%2Ftracker.coppersurfer.tk%3A6969&amp;tr=udp%3A%2F%2Fexodus.desync.com%3A6969",
  "seeders": 139,
  "leechers": 4,
  "uploader": "HeroMaster",
  "files": -1,
  "time": 1389132307,
  "description": "::::::: HuMPDaY PRESENTS :::::::\n\n\n:::: Frozen 2013 720p DVDSCR XViD AC3-HuMPDaY ::::\n\n\n::Information::\n\n\nrozen.2013.720p.DVDSCR.XViD AC3-HuMPDaY.avi\nFormat : AVI\nFormat/Info : Audio Video Interleave\nFile size : 2.36 GiB\nDuration : 1h 40mn\nOverall bit rate : 3 359 Kbps\nWriting library : MPlayer\n\nVideo\nID : 0\nFormat : MPEG-4 Visual\nFormat profile : Advanced Simple@L5\nFormat settings, BVOP : 2\nFormat settings, QPel : No\nFormat settings, GMC : No warppoints\nFormat settings, Matrix : Default (H.263)\nCodec ID : XVID\nCodec ID/Hint : XviD\nDuration : 1h 40mn\nBit rate : 3 090 Kbps\nWidth : 1 280 pixels\nHeight : 528 pixels\nDisplay aspect ratio : 2.40:1\nFrame rate : 29.970 fps\nColor space : YUV\nChroma subsampling : 4:2:0\nBit depth : 8 bits\nScan type : Progressive\nCompression mode : Lossy\nBits/(Pixel*Frame) : 0.153\nStream size : 2.17 GiB (92%)\nWriting library : XviD 1.1.2 (UTC 2006-11-01)\n\nAudio\nID : 1\nFormat : MPEG Audio\nFormat version : Version 1\nFormat profile : Layer 3\nMode : Joint stereo\nCodec ID : 55\nCodec ID/Hint : MP3\nDuration : 1h 40mn\nBit rate mode : Constant\nBit rate : 256 Kbps\nChannel(s) : 2 channels\nSampling rate : 44.1 KHz\nCompression mode : Lossy\nDelay relative to video : 33ms\nStream size : 184 MiB (8%)\nAlignment : Aligned on interleaves\nInterleave, duration : 26 ms (0.78 video frame)\nInterleave, preload duration : 809 ms\nWriting library : LAME3.97\n\n\n::IMDB::\n\n &lt;a href=&quot;\nhttp://www.imdb.com/title/tt2294629/&quot; rel=&quot;nofollow&quot; target=&quot;_NEW&quot;&gt;\nhttp://www.imdb.com/title/tt2294629/&lt;/a&gt;\n\n\n::Greetz and Respect::\n\n\nALL CREDIT Goes to HUMPDAY for Encoding and ABG for Distribution.\n\n\n::Poster::\n\n &lt;a href=&quot;\nhttp://i.imgur.com/quZjQBq.jpg&quot; rel=&quot;nofollow&quot; target=&quot;_NEW&quot;&gt;\nhttp://i.imgur.com/quZjQBq.jpg&lt;/a&gt;\n\n\n::Screenshots::\n\n &lt;a href=&quot;\nhttp://i.imgur.com/8HfOids.jpg&quot; rel=&quot;nofollow&quot; target=&quot;_NEW&quot;&gt;\nhttp://i.imgur.com/8HfOids.jpg&lt;/a&gt;\n\n\nSEED AND ENJOY!",
  "parsed": {
    "xt": "urn:btih:8631a6c1fee556246a798946a638d2661c634946",
    "dn": "Frozen 2013 720p DVDSCR XViD AC3-HuMPDaY",
    "tr": [
      "udp://exodus.desync.com:6969",
      "udp://open.demonii.com:1337",
      "udp://tracker.coppersurfer.tk:6969",
      "udp://tracker.openbittorrent.com:80"
    ],
    "infoHash": "8631a6c1fee556246a798946a638d2661c634946",
    "infoHashBuffer": {
      "type": "Buffer",
      "data": [
        134,
        49,
        166,
        193,
        254,
        229,
        86,
        36,
        106,
        121,
        137,
        70,
        166,
        56,
        210,
        102,
        28,
        99,
        73,
        70
      ]
    },
    "name": "Frozen 2013 720p DVDSCR XViD AC3-HuMPDaY",
    "announce": [
      "udp://exodus.desync.com:6969",
      "udp://open.demonii.com:1337",
      "udp://tracker.coppersurfer.tk:6969",
      "udp://tracker.openbittorrent.com:80"
    ],
    "urlList": []
  },
  "previous": 143,
  "peers": 62,
  "last_updated": "2016-12-25T06:40:49.562Z"
}